<?xml version="1.0" encoding="utf-8"?>
<!-- Generator: Adobe Illustrator 22.0.1, SVG Export Plug-In . SVG Version: 6.00 Build 0)  -->
<svg version="1.1" id="Layer_1" xmlns="http://www.w3.org/2000/svg" xmlns:xlink="http://www.w3.org/1999/xlink" x="0px" y="0px"
	 viewBox="0 0 25 25" style="enable-background:new 0 0 25 25;" xml:space="preserve">
<style type="text/css">
	.st0{fill:#B62025;}
</style>
<path d="M0.8,0.1h4.1v20.3c0,0.5,0.2,0.7,0.7,0.7h0.7v3.8H3.5c-0.8,0-1.4-0.3-2-0.8c-0.5-0.5-0.8-1.2-0.8-2V0.1z"/>
<path d="M11.8,6.3h7.6c0.8,0,1.4,0.3,2,0.8c0.5,0.5,0.8,1.2,0.8,2v5.7c0,0.8-0.3,1.4-0.8,2c-0.5,0.5-1.2,0.8-2,0.8h-6.2v2.9
	c0,0.5,0.2,0.7,0.7,0.7h8.3v3.8H11.8c-0.8,0-1.4-0.3-2-0.8c-0.5-0.5-0.8-1.2-0.8-2V9.1c0-0.8,0.3-1.4,0.8-2
	C10.3,6.6,11,6.3,11.8,6.3z M17.3,10.1h-3.4c-0.5,0-0.7,0.2-0.7,0.7v2.9h4.1c0.5,0,0.7-0.2,0.7-0.7v-2.2
	C18,10.3,17.7,10.1,17.3,10.1z"/>
<polygon class="st0" points="10.5,0.1 5.4,0.1 5.4,6 "/>
</svg>
